<svg viewBox="5 5 160 160" fill="none" xmlns="http://www.w3.org/2000/svg">
<path d="M50.5 26V17C50.5 12.05 46.585 8 41.8 8H15.7C10.915 8 7 12.05 7 17V80C7 84.95 10.915 89 15.7 89H85.3C90.085 89 94 84.95 94 80V35C94 30.05 90.085 26 85.3 26H50.5ZM24.4 80H15.7V71H24.4V80ZM24.4 62H15.7V53H24.4V62ZM24.4 44H15.7V35H24.4V44ZM24.4 26H15.7V17H24.4V26ZM41.8 80H33.1V71H41.8V80ZM41.8 62H33.1V53H41.8V62ZM41.8 44H33.1V35H41.8V44ZM41.8 26H33.1V17H41.8V26ZM80.95 80H50.5V71H59.2V62H50.5V53H59.2V44H50.5V35H80.95C83.3425 35 85.3 37.025 85.3 39.5V75.5C85.3 77.975 83.3425 80 80.95 80ZM76.6 44H67.9V53H76.6V44ZM76.6 62H67.9V71H76.6V62Z" fill="#0F182B" fill-opacity="0.6"/>
<path d="M21.568 63.6834C20.6651 62.7761 19.2066 62.7761 18.3037 63.6834L7.67718 74.3614C6.77427 75.2687 6.77427 76.7343 7.67718 77.6416L18.3037 88.3195C19.2066 89.2268 20.6651 89.2268 21.568 88.3195C22.4709 87.4123 22.4709 85.9467 21.568 85.0394L12.5853 75.9898L21.568 66.9636C22.4478 66.0563 22.4478 64.5674 21.568 63.6834ZM41.432 63.6834C40.5291 64.5907 40.5291 66.0563 41.432 66.9636L50.4147 75.9898L41.432 85.0161C40.5291 85.9234 40.5291 87.389 41.432 88.2963C42.3349 89.2036 43.7934 89.2036 44.6963 88.2963L55.3228 77.6183C56.2257 76.711 56.2257 75.2454 55.3228 74.3381L44.6963 63.6601C43.8166 62.7761 42.3349 62.7761 41.432 63.6834ZM22.2394 78.3162C23.5128 78.3162 24.5546 77.2693 24.5546 75.9898C24.5546 74.7103 23.5128 73.6635 22.2394 73.6635C20.9661 73.6635 19.9243 74.7103 19.9243 75.9898C19.9243 77.2693 20.9661 78.3162 22.2394 78.3162ZM31.5 78.3162C32.7733 78.3162 33.8151 77.2693 33.8151 75.9898C33.8151 74.7103 32.7733 73.6635 31.5 73.6635C30.2267 73.6635 29.1849 74.7103 29.1849 75.9898C29.1849 77.2693 30.2267 78.3162 31.5 78.3162ZM40.7606 73.6635C39.4872 73.6635 38.4454 74.7103 38.4454 75.9898C38.4454 77.2693 39.4872 78.3162 40.7606 78.3162C42.0339 78.3162 43.0757 77.2693 43.0757 75.9898C43.0757 74.7103 42.0339 73.6635 40.7606 73.6635Z" fill="#3A0254"/>
<path d="M76 54H86.8C90.796 54 94 50.85 94 47V33C94 29.115 90.76 26 86.8 26H76C72.004 26 68.8 29.15 68.8 33V36.5H47.236V33C47.236 29.115 43.996 26 40.036 26H29.2C25.24 26 22 29.15 22 33V47C22 50.885 25.24 54 29.2 54H40C43.996 54 47.2 50.85 47.2 47V43.5H54.4V68.035C54.4 73.81 59.224 78.5 65.164 78.5H68.8V82C68.8 85.885 72.04 89 76 89H86.8C90.796 89 94 85.85 94 82V68C94 64.115 90.76 61 86.8 61H76C72.004 61 68.8 64.15 68.8 68V71.5H65.164C63.22 71.5 61.6 69.925 61.6 68.035V43.5H68.8V47C68.8 50.85 72.04 54 76 54Z" fill="#19395E"/>
</svg>
